<svg xmlns="http://www.w3.org/2000/svg" version="1.1" xmlns:xlink="http://www.w3.org/1999/xlink" xmlns:svgjs="http://svgjs.dev/svgjs" width="1457" height="1000" preserveAspectRatio="none" viewBox="0 0 1457 1000"><g mask="url(&quot;#SvgjsMask1076&quot;)" fill="none"><rect width="1457" height="1000" x="0" y="0" fill="rgba(173, 176, 179, 1)"></rect><path d="M0,642.694C118.459,644.496,180.989,500.746,279.933,435.585C377.351,371.429,513.43,361.444,576.281,263.179C641.13,161.789,620.51,31.795,615.101,-88.438C609.153,-220.649,632.311,-372.834,543.265,-470.742C454.3,-568.562,299.424,-552.268,169.75,-578.114C52.21,-601.541,-63.467,-640.469,-180.585,-615.016C-302.675,-588.482,-422.763,-531.404,-499.358,-432.696C-574.38,-336.015,-600.626,-207.143,-591.796,-85.087C-583.86,24.612,-511.001,113.415,-453.085,206.917C-402.289,288.925,-344.04,360.281,-274.514,427.151C-188.929,509.467,-118.732,640.888,0,642.694" fill="#898d91"></path><path d="M1457 1629.518C1571.919 1612.476 1633.299 1489.025 1728.329 1422.196 1818.1 1359.066 1936.813 1337.778 1999.7240000000002 1247.854 2067.895 1150.412 2120.982 1023.394 2087.076 909.409 2053.444 796.345 1901.318 770.765 1829.887 676.892 1750.844 573.0160000000001 1770.238 391.65200000000004 1651.628 337.158 1536.075 284.06899999999996 1403.924 373.648 1289.184 428.472 1188.635 476.515 1106.344 548.704 1033.106 632.694 959.663 716.919 900.919 809.058 865.037 914.889 822.904 1039.159 755.062 1176.321 808.097 1296.344 861.141 1416.388 1011.756 1451.199 1128.507 1511.144 1234.187 1565.405 1339.489 1646.944 1457 1629.518" fill="#d2d3d5"></path></g><defs><mask id="SvgjsMask1076"><rect width="1457" height="1000" fill="#ffffff"></rect></mask></defs></svg>